<svg xmlns="http://www.w3.org/2000/svg" viewBox="0 0 220 205" fill="none">
  <defs>
    <clipPath id="ball">
      <circle cx="90" cy="138" r="56"/>
    </clipPath>
  </defs>

  <!-- Ball shadow -->
  <ellipse cx="90" cy="193" rx="50" ry="8" fill="#00000018"/>

  <!-- Soccer ball -->
  <circle cx="90" cy="138" r="56" fill="white"/>
  <g clip-path="url(#ball)" fill="#111827" stroke="#374151" stroke-width="0.8" stroke-linejoin="round">
    <polygon points="90,112 102,120 98,133 82,133 78,120"/>
    <polygon points="90,95 104,103 103,112 90,112 77,112 76,103"/>
    <polygon points="104,103 116,107 116,120 102,124 98,133 103,112"/>
    <polygon points="76,103 64,107 64,120 78,124 82,133 77,112"/>
    <polygon points="116,120 127,112 135,123 132,136 116,136"/>
    <polygon points="64,120 53,112 45,123 48,136 64,136"/>
    <polygon points="98,133 103,124 116,136 113,148 101,154"/>
    <polygon points="82,133 77,124 64,136 67,148 79,154"/>
    <polygon points="90,157 101,154 113,148 110,160 90,166 70,160 67,148 79,154"/>
  </g>
  <circle cx="90" cy="138" r="56" stroke="#1f2937" stroke-width="2.5" fill="none"/>

  <!-- Wizard hat shadow -->
  <path d="M 176,114 C 160,73 100,33 60,27 C 56,22 49,19 47,20 C 44,19 36,22 35,28 C 20,55 9,83 17,114 Z"
        fill="#150330" opacity="0.28" transform="translate(3,4)"/>

  <!-- Hat cone -->
  <path d="M 176,111
           C 160,70 100,30 60,24
           C 56,19 49,16 47,17
           C 44,16 37,20 36,26
           C 21,53 10,81 18,111 Z"
        fill="#7e22ce" stroke="#3b0764" stroke-width="2" stroke-linejoin="round"/>

  <!-- Hat cone inner highlight -->
  <path d="M 47,17 C 44,16 37,20 36,26 C 23,52 13,79 19,109 L 57,107 C 47,84 44,55 47,17 Z"
        fill="#9333ea" opacity="0.22"/>

  <!-- Hat brim underside -->
  <ellipse cx="97" cy="115" rx="79" ry="16" fill="#2d0f6b"/>
  <!-- Hat brim top -->
  <ellipse cx="97" cy="112" rx="79" ry="16" fill="#6d28d9" stroke="#7c3aed" stroke-width="1.5"/>

  <!-- Hat band -->
  <path d="M 31,108 Q 97,101 163,108 L 163,112 Q 97,105 31,112 Z" fill="#1a0852"/>

  <!-- Buckle -->
  <rect x="87" y="101" width="20" height="14" rx="2" fill="#d4af37" stroke="#78350f" stroke-width="1"/>
  <line x1="97" y1="101" x2="97" y2="115" stroke="#1a0852" stroke-width="2"/>
  <rect x="90.5" y="104" width="13" height="8" rx="1" fill="none" stroke="#1a0852" stroke-width="1.5"/>

  <!-- Stars on hat -->
  <path d="M 41,75 L 43,69 L 45,75 L 51,75 L 46,79 L 48,85 L 43,81 L 38,85 L 40,79 L 35,75 Z" fill="white"/>
  <path d="M 74,53 L 76,48 L 78,53 L 83,53 L 79,57 L 81,62 L 76,58 L 71,62 L 73,57 L 69,53 Z" fill="white" opacity="0.9"/>
  <path d="M 116,66 L 117.5,62 L 119,66 L 123,66 L 120,69 L 121,73 L 117.5,70.5 L 114,73 L 115,69 L 112,66 Z" fill="white" opacity="0.85"/>
  <path d="M 141,84 L 142.5,81 L 144,84 L 147,84 L 145,86 L 146,89 L 142.5,87 L 139,89 L 140,86 L 138,84 Z" fill="white" opacity="0.7"/>

  <!-- Magic wand stick -->
  <line x1="158" y1="152" x2="197" y2="91" stroke="#92400e" stroke-width="5.5" stroke-linecap="round"/>
  <line x1="158" y1="152" x2="197" y2="91" stroke="#d97706" stroke-width="3" stroke-linecap="round"/>
  <line x1="158" y1="152" x2="197" y2="91" stroke="#fde68a" stroke-width="1" stroke-linecap="round" opacity="0.45"/>

  <!-- Wand star -->
  <path d="M 197,68 L 200.5,79 L 212,79 L 203,86 L 206.5,97 L 197,90 L 187.5,97 L 191,86 L 182,79 L 193.5,79 Z"
        fill="#fbbf24" stroke="#d97706" stroke-width="1.5"/>
  <circle cx="197" cy="84" r="5.5" fill="#fef3c7" opacity="0.35"/>

  <!-- Wand sparkles -->
  <path d="M 210,59 L 211.5,55 L 213,59 L 217,59 L 214,62 L 215.5,66 L 211.5,63 L 207.5,66 L 209,62 L 206,59 Z"
        fill="#a855f7"/>
  <path d="M 214,80 L 215,78 L 216,80 L 218,80 L 216.5,81.5 L 217,83.5 L 215,82.5 L 213,83.5 L 213.5,81.5 L 212,80 Z"
        fill="#fbbf24" opacity="0.9"/>
  <path d="M 174,68 L 175.5,65 L 177,68 L 180,68 L 178,70.5 L 179,73 L 175.5,71 L 172,73 L 173,70.5 L 171,68 Z"
        fill="#a855f7" opacity="0.8"/>
  <circle cx="211" cy="93" r="2.5" fill="#a855f7" opacity="0.7"/>
  <circle cx="201" cy="103" r="2" fill="#c084fc" opacity="0.6"/>
  <circle cx="180" cy="82" r="2" fill="#fbbf24" opacity="0.7"/>
</svg>
